# Blender v2.81 (sub 16) OBJ File: 'untitled.blend'
# www.blender.org
mtllib corazonlow.mtl
o Plane
v -0.020872 0.896516 0.200536
v -1.193491 -0.453814 0.200535
v -1.550361 0.719378 0.200536
v -0.915562 1.381069 0.200536
v 0.884675 1.388852 0.200536
v 1.520145 0.695210 0.200536
v 1.156607 -0.460022 0.200535
v -0.014703 -1.376105 0.200535
v -0.602835 -0.320933 0.799225
v -0.165400 -0.020412 0.799225
v -0.852224 0.727667 0.738336
v -0.020872 0.896516 0.547363
v 0.845380 0.497396 0.738336
v 0.131187 -0.640679 0.674529
v -1.193491 -0.453814 0.436143
v -1.550361 0.719378 0.548861
v -0.915562 1.381069 0.546697
v 0.884675 1.388852 0.546697
v 1.520145 0.695210 0.548861
v 1.156607 -0.460022 0.436143
v -0.014703 -1.376105 0.304913
vt 0.000000 0.000000
vt 0.000000 0.000000
vt 0.000000 0.000000
vt 0.000000 0.000000
vt 0.000000 0.000000
vt 0.000000 0.000000
vt 0.000000 0.000000
vt 0.000000 0.000000
vt 0.000000 0.000000
vt 0.000000 0.000000
vt 0.000000 0.000000
vt 0.000000 0.000000
vt 0.000000 0.000000
vt 0.000000 0.000000
vt 0.000000 0.000000
vt 0.000000 0.000000
vt 0.000000 0.000000
vt 0.000000 0.000000
vt 0.000000 0.000000
vt 0.000000 0.000000
vt 0.000000 0.000000
vn -0.0342 0.0498 0.9982
vn 0.1719 0.2356 0.9565
vn -0.0838 0.2762 0.9574
vn 0.1288 -0.1359 0.9823
vn 0.1023 -0.1488 0.9836
vn -0.5106 -0.0717 0.8568
vn -0.2563 -0.1694 0.9516
vn -0.2564 0.2491 0.9339
vn 0.1574 0.2919 0.9434
vn -0.1154 0.2136 0.9701
vn 0.2112 0.1965 0.9575
vn 0.3167 -0.1903 0.9292
vn 0.2568 -0.2140 0.9425
vn 0.2778 -0.4748 0.8351
vn -0.0405 -0.4423 0.8960
vn -0.3447 -0.5489 0.7616
vn 0.7373 0.6755 0.0000
vn 0.4762 0.8793 0.0000
vn -0.6162 -0.7876 0.0000
vn -0.4777 0.8785 0.0000
vn 0.6161 -0.7877 0.0000
vn 0.9539 -0.3002 0.0000
vn -0.7216 0.6923 0.0000
vn -0.9567 -0.2910 0.0000
usemtl Material.001
s off
f 11/1/1 9/2/1 10/3/1
f 11/1/2 10/3/2 12/4/2
f 12/4/3 10/3/3 13/5/3
f 13/5/4 10/3/4 14/6/4
f 14/6/5 10/3/5 9/2/5
f 9/2/6 11/1/6 15/7/6
f 15/7/7 11/1/7 16/8/7
f 16/8/8 11/1/8 17/9/8
f 17/9/9 11/1/9 12/4/9
f 12/4/10 13/5/10 18/10/10
f 18/10/11 13/5/11 19/11/11
f 19/11/12 13/5/12 20/12/12
f 20/12/13 13/5/13 14/6/13
f 20/12/14 14/6/14 21/13/14
f 21/13/15 14/6/15 9/2/15
f 21/13/16 9/2/16 15/7/16
f 6/14/17 5/15/17 18/10/17 19/11/17
f 1/16/18 4/17/18 17/9/18 12/4/18
f 2/18/19 8/19/19 21/13/19 15/7/19
f 5/15/20 1/16/20 12/4/20 18/10/20
f 8/19/21 7/20/21 20/12/21 21/13/21
f 7/20/22 6/14/22 19/11/22 20/12/22
f 4/17/23 3/21/23 16/8/23 17/9/23
f 3/21/24 2/18/24 15/7/24 16/8/24
